<?xml version="1.0" encoding="UTF-8"?>
<svg width="473px" height="597px" viewBox="0 0 473 597" version="1.1" xmlns="http://www.w3.org/2000/svg" xmlns:xlink="http://www.w3.org/1999/xlink">
    <title>Pattern</title>
    <g id="Page-1" stroke="none" stroke-width="1" fill="none" fill-rule="evenodd" opacity="0.1">
        <g id="About-Us" transform="translate(-1102.000000, -623.000000)">
            <g id="Pattern" transform="translate(1102.000000, 623.000000)">
                <g transform="translate(236.500000, 298.500000) scale(-1, 1) translate(-236.500000, -298.500000) " id="Rectangle">
                    <path d="M265.142189,118.5 L202,229.985427 L138.857811,118.5 L265.142189,118.5 Z" stroke="#F4F4F4"></path>
                    <path d="M334.142189,239.5 L271,350.985427 L207.857811,239.5 L334.142189,239.5 Z" stroke="#F4F4F4"></path>
                    <path d="M472.142189,239.5 L409,350.985427 L345.857811,239.5 L472.142189,239.5 Z" stroke="#F4F4F4"></path>
                    <path d="M196.142189,363.5 L133,474.985427 L69.8578111,363.5 L196.142189,363.5 Z" stroke="#F4F4F4" transform="translate(133.000000, 419.500000) scale(1, -1) translate(-133.000000, -419.500000) "></path>
                    <path d="M334.142189,363.5 L271,474.985427 L207.857811,363.5 L334.142189,363.5 Z" stroke="#F4F4F4" transform="translate(271.000000, 419.500000) scale(1, -1) translate(-271.000000, -419.500000) "></path>
                    <path d="M472.142189,363.5 L409,474.985427 L345.857811,363.5 L472.142189,363.5 Z" stroke="#F4F4F4" transform="translate(409.000000, 419.500000) scale(1, -1) translate(-409.000000, -419.500000) "></path>
                    <path d="M265.142189,242.5 L202,353.985427 L138.857811,242.5 L265.142189,242.5 Z" stroke="#F4F4F4" transform="translate(202.000000, 298.500000) scale(1, -1) translate(-202.000000, -298.500000) "></path>
                    <path d="M403.142189,242.5 L340,353.985427 L276.857811,242.5 L403.142189,242.5 Z" stroke="#F4F4F4" transform="translate(340.000000, 298.500000) scale(1, -1) translate(-340.000000, -298.500000) "></path>
                    <path d="M127.142189,360.5 L64,471.985427 L0.857811128,360.5 L127.142189,360.5 Z" stroke="#F4F4F4"></path>
                    <path d="M265.142189,360.5 L202,471.985427 L138.857811,360.5 L265.142189,360.5 Z" stroke="#F4F4F4"></path>
                    <path d="M403.142189,360.5 L340,471.985427 L276.857811,360.5 L403.142189,360.5 Z" stroke="#F4F4F4"></path>
                    <path d="M334.142189,121.5 L271,232.985427 L207.857811,121.5 L334.142189,121.5 Z" stroke="#003E7E" transform="translate(271.000000, 177.500000) scale(1, -1) translate(-271.000000, -177.500000) "></path>
                    <path d="M403.142189,0.5 L340,111.985427 L276.857811,0.5 L403.142189,0.5 Z" stroke="#003E7E" transform="translate(340.000000, 56.500000) scale(1, -1) translate(-340.000000, -56.500000) "></path>
                    <path d="M403.142189,118.5 L340,229.985427 L276.857811,118.5 L403.142189,118.5 Z" stroke="#003E7E"></path>
                    <path d="M265.142189,118.5 L202,229.985427 L138.857811,118.5 L265.142189,118.5 Z" stroke="#003E7E"></path>
                    <path d="M265.142189,118.5 L202,229.985427 L138.857811,118.5 L265.142189,118.5 Z" stroke="#003E7E"></path>
                    <path d="M334.142189,481.5 L271,592.985427 L207.857811,481.5 L334.142189,481.5 Z" stroke="#F4F4F4"></path>
                    <path d="M472.142189,481.5 L409,592.985427 L345.857811,481.5 L472.142189,481.5 Z" stroke="#F4F4F4"></path>
                    <path d="M403.142189,484.5 L340,595.985427 L276.857811,484.5 L403.142189,484.5 Z" stroke="#F4F4F4" transform="translate(340.000000, 540.500000) scale(1, -1) translate(-340.000000, -540.500000) "></path>
                </g>
                <g transform="translate(236.500000, 418.000000) scale(-1, 1) translate(-236.500000, -418.000000) translate(0.000000, 239.000000)" id="Rectangle" stroke="#003E7E">
                    <path d="M196.142189,0.5 L133,111.985427 L69.8578111,0.5 L196.142189,0.5 Z"></path>
                    <path d="M334.142189,0.5 L271,111.985427 L207.857811,0.5 L334.142189,0.5 Z"></path>
                    <path d="M472.142189,0.5 L409,111.985427 L345.857811,0.5 L472.142189,0.5 Z"></path>
                    <path d="M196.142189,124.5 L133,235.985427 L69.8578111,124.5 L196.142189,124.5 Z" transform="translate(133.000000, 180.500000) scale(1, -1) translate(-133.000000, -180.500000) "></path>
                    <path d="M334.142189,124.5 L271,235.985427 L207.857811,124.5 L334.142189,124.5 Z" transform="translate(271.000000, 180.500000) scale(1, -1) translate(-271.000000, -180.500000) "></path>
                    <path d="M472.142189,124.5 L409,235.985427 L345.857811,124.5 L472.142189,124.5 Z" transform="translate(409.000000, 180.500000) scale(1, -1) translate(-409.000000, -180.500000) "></path>
                    <path d="M265.142189,3.5 L202,114.985427 L138.857811,3.5 L265.142189,3.5 Z" transform="translate(202.000000, 59.500000) scale(1, -1) translate(-202.000000, -59.500000) "></path>
                    <path d="M403.142189,3.5 L340,114.985427 L276.857811,3.5 L403.142189,3.5 Z" transform="translate(340.000000, 59.500000) scale(1, -1) translate(-340.000000, -59.500000) "></path>
                    <path d="M127.142189,121.5 L64,232.985427 L0.857811128,121.5 L127.142189,121.5 Z"></path>
                    <path d="M265.142189,121.5 L202,232.985427 L138.857811,121.5 L265.142189,121.5 Z"></path>
                    <path d="M403.142189,121.5 L340,232.985427 L276.857811,121.5 L403.142189,121.5 Z"></path>
                    <path d="M334.142189,242.5 L271,353.985427 L207.857811,242.5 L334.142189,242.5 Z"></path>
                    <path d="M472.142189,242.5 L409,353.985427 L345.857811,242.5 L472.142189,242.5 Z"></path>
                    <path d="M403.142189,245.5 L340,356.985427 L276.857811,245.5 L403.142189,245.5 Z" transform="translate(340.000000, 301.500000) scale(1, -1) translate(-340.000000, -301.500000) "></path>
                </g>
            </g>
        </g>
    </g>
</svg>